<?xml version="1.0" encoding="UTF-8"?>
<svg id="Camada_1" data-name="Camada 1" xmlns="http://www.w3.org/2000/svg" viewBox="0 0 96 96">
  <defs>
    <style>
      .cls-1 {
        fill: #232323;
      }

      .cls-2 {
        fill: #eec952;
      }

      .cls-3 {
        fill: #544631;
      }

      .cls-4 {
        fill: #ebbc31;
      }
    </style>
  </defs>
  <path class="cls-3" d="M17.25,43.3c.07.3.04.59.11.95l.28,1.39c.05.11-.03.23-.12.11.01-.15-.12-.33-.22-.42.07-.06.16-.14.11-.22-.06-.1-.16-.14-.22-.21l-.22-2.48c.03.33.23.61.29.88Z"/>
  <path class="cls-1" d="M52.43,63.49c.6.33,1.12.86,1.81.98,1.33.87,2.83,1.57,4.38,2.07l4.12,1.32c1.49.48,2.99.78,4.53,1.04,4.5.76,7.17,1.72,11.4,3.34.53.02,1.1-.08,1.63.16l1.16.52c.51.23,1.13.14,1.63.29.21.24.47.43.7.65l.15.14c-.05.02-.08.04-.07.09,0,.03-.05.11-.01.13.05.02.11,0,.14-.03.22-.18.7-.15.93,0,.36.24.6.54.53.94-.11.05-.35-.03-.34.13,0,.09-.04.35.07.39.24.09.85,1.01.66,1.67-.08.27.21.6.15.9-.33,1.52-2.04.93-1.13,1.85.05,1.32-.97.18-1.18,1.17-.3.14-.63.25-.83.53-.15.05-.31.1-.45.17-.15-.08-.3,0-.43.09-.18.03-.39.07-.57.11-1.17.29-2.29.82-3.41,1.41-.85.45-1.76.71-2.55,1.21-.03.02-.05.06-.08.08-.11-.04-.22-.03-.33.01-.38.14-.74.37-1.17.5l-2.04.65c-.21.07-.48,0-.67.17-.04-.1-.15-.01-.21.02-3.29.49-6.58.82-9.95.57-1.51-.11-2.87-.4-4.34-.72l-3.94-.87-3.68-.97-2.77-.77c-.5-.14-.92-.55-1.42-.46-.6-.39-1.32-.51-2.02-.84-2.03-.96-3.98-2.03-5.8-3.35l-2.53-1.83c-2.76-2.01-4.92-4.21-7.34-6.61-1.56-1.54-2.76-3.28-4-5.07s-2.36-3.72-3.13-5.85c-.46-1.27-1.18-2.4-1.5-3.71-.16-.66-.41-1.17-.78-1.73-.45-.68-.39-1.57-.57-2.33l-.8-3.5c-.17-.75-.02-1.54-.29-2.31-.16-.45-.12-.95-.22-1.4-.13-.6-.29-1.12-.26-1.76.15-3.02.39-5.99.87-8.98.07-.45.23-.84.35-1.27.79-3.08,2.49-5.72,4.86-7.85.34-.31.63-.74,1.11-.84.4-.97,1.23-1.67,2.2-2.1.83-.36,1.28-1.31,1.82-1.92l.08-.09c.09-.09.12-.22.2-.3,1.25-1.4,2.7-4.73,2.79-6.6l.12-2.53c.55-.55.99-1.14,1.16-1.89.08-.36.45-.66.57-1.04,0-.03,1.42-1.04,2.14-.73.14.06.16.38.36.34.09-.02.23-.09.36-.1.24-.03.25.39.39.43.27.04.81-.01.79.38-.02.34-.15.68-.28,1-.26.64-.07,1.35-.05,2.01.01.5.25.91.64,1.16.57.37.23.87.32,1.26.15.61.41,1.02-.15,1.56-.36.34-.59.93-.93,1.35-1.07,1.32-1.55,2.88-2.07,4.43-.38,1.14-.49,2.19-.47,3.4.02.98-.04,1.97.49,2.92,1.06,1.9,1.59,6.36,1.92,8.53l.45,3c.41,2.72.89,5.86,2.13,8.3l.93,1.82c.68,1.33,1.32,2.6,2.2,3.81,1.05,1.44,1.97,2.91,3.21,4.21,1.05,1.09,1.97,2.17,3.1,3.17,1.68,1.47,3.32,2.93,5.23,3.98ZM34.22,8.05c-.3.32-.08.75-.1,1.14-.04.67-.11,1.21.16,1.77.19.38.15,1.02.82,1.21-.22-.47-.49-.89-.79-1.27-.06-.86-.01-1.72.27-2.54.03-.1.18-.24.36-.28-.24.81-.75,2.72.33,3.34-.39-1.16-.36-2.31-.07-3.51-.46-.26-.94-.15-1.31-.42-.19-.14-.32.01-.35.17-.01.07.01.16.18.16.13-.05.26-.14.34-.07.09.08.08.24.16.3ZM32.17,10.26c.18-.41.29-.75.32-1.19-.34.33-.35.8-.32,1.19ZM33.97,11.55c-.1-.21-.18-.4-.33-.62-.28.53-.07.9.21,1.27.39.52,1.07,1.06,1.73.57.1-.08-.13-.31-.2-.37-.09-.09-.37.11-.48,0l-.93-.85ZM31.66,9.74c-.24.09-.25.22-.12.31.07.05.18-.06.17-.15,0-.04.03-.19-.06-.16ZM33.51,14.87c-.18.51-.53.94-.78,1.39-.43-.17-.37.85-.87,1.24-.17-.41.88-3.44,1.03-4.09-1.25-.69-.79-2.48-2.1-2.8.08,2.46-.36,4.68-1.4,6.79-.39.79-.74,1.57-1.24,2.23l-1.47,1.92c-.34.45-.64.83-1.09,1.1-.9.68-1.88,1.27-2.78,2.05-3.05,2.65-4.4,6.69-5.37,10.16l-.36,1.28c-.37,1.32-.57,3.8-.19,5.11-.06.11-.24.03-.37.06-.02.55.44,2.53.26,2.68-.12-.08-.06-.26-.24-.42-.05.53,0,1.07.17,1.58-.15.82.07,1.6.26,2.45.32,1.39.53,2.81,1.22,4.08.41.75.69,1.43.89,2.25.08.32.31.66.45.98l.82,2.01c1.74,4.24,4.38,8.56,7.39,12.04,1.63,1.88,3.22,3.61,5.11,5.24.4.34.75.75,1.07,1.09.65.7,1.7,1.57,2.59,2.08l1.98,1.15c1.9,1.1,3.92,2.03,5.96,2.83l2.71,1.06c1.91.75,3.77,1.49,5.72,1.92l1.75.39c2.1.47,3.93.67,5.99,1.01-.19.13-.43-.12-.57.16,1.02.27,2.05.06,3.09.16,1.25.12,2.45-.03,3.62-.05,1.56-.03,3.08-.34,4.56-.8,1.34-.42,2.72-.72,3.98-1.4.03-.02.06-.06.08-.09.1.03.16-.08.24-.1.94-.23,1.78-.77,2.73-1.16,1.19-.49,2.35-.87,3.45-1.56-.51.04-.85.44-1.46.4.1-.18.38-.35.55-.46.45.03,2.34-1.32,2.34-1.51,0-.08-.04-.18-.13-.22-.09-.04-.17.09-.26.18-.64.63-1.46.94-2.21,1.3-.28.13-.61.26-.96.19,1.21-.5,2.31-1.09,3.23-1.93-1.06.32-3.01,1.82-3.89,1.77.94-.57,1.81-.95,2.6-1.58.28-.22.8-.28.94-.66.07-.26-.01-.69-.08-.94-.09-.34.02-.73-.05-1.05-.13-.61-1.01-.67-1.44-.56.3.21.6.18.88.26.06.03,0,.21-.04.23-.04.02-.08.05-.12.07-.05-.04-.12-.03-.17,0-.66-.19-1.36-.12-2.07-.17-.45-.03-.87-.23-1.27-.11-.12-.08-.27-.1-.41-.05l-3.17-.81c-.24-.06-.45-.21-.67-.14-1.11-.39-3.35-.92-4.53-1.01-.85-.07-1.4,0-2.06-.3,1.69-.17,3.23.08,4.8.49,1.8.47,3.53.96,5.35,1.31,2.08.4,1.73-.59,5.06.13.18.04.4-.03.54-.09.25-.1.24-1.04.17-1.1-.09-.08-.29-.02-.37-.08-.26-.22-.55-.26-.92-.32-.92-.15-1.86-.41-2.73-.78l-1.87-.8c-2.33-.99-4.71-2-7.23-2.51l-3.78-.76c-.76-.15-1.51-.25-2.26-.5-.15-.05-.32-.22-.41-.04-.01-.02-.05-.06-.08-.06-.1-.03-.21-.03-.32,0-.05-.04-.12-.13-.18-.15l-4.7-1.39c-1.69-.82-3.45-1.51-5.12-2.52l-.85-.51c-1.65-1-5.83-4.03-7.1-5.34-2.07-2.14-3.92-4.42-5.39-7.02l-2.26-3.97c-.41-.73-.68-1.53-1.03-2.3-.76-1.68-1.04-3.49-1.4-5.28-.15-.72-.28-1.36-.37-2.09l-.65-5.23c-.35-2.83-1.3-4.06-2.09-6.54-.04-.11.07-.25.05-.34-.02-.1-.28-.06-.51-.82l-.23-1.49c-.04-.25.21-.47.23-.73.06-.82.07-1.65.46-2.33.27.35-.19.6.1,1.05.44-1.72.98-3.36,1.84-4.93.38-.69,1.72-2.65,1.52-3.08-.05-.1-.34-.1-.43-.03-.34.28-.77-.07-1.05.05-.43.19-.5.85-.62,1.2ZM33.61,13.15c.05.02.23-.1.15-.19-.2-.2-.37-.49-.73-.52.83.83-.08.45.58.7ZM33.37,13.72l-.2-.1-.24.51.2.1.24-.51ZM32.18,21.92c-.08.06-.12.12-.13.21,0,.13,0,.28.19.25-.08-.17-.13-.24-.06-.46.07-.05.08-.15,0,0ZM83.88,76.09c.19-.36.18-.57.26-.78-.59-.07-.32.99-.26.78ZM81.73,73.65c.05-.05.05-.14,0-.19s-.14-.05-.19,0-.05.14,0,.19.14.05.19,0ZM81.37,73.51c-.27-.15-.53-.12-.81-.2.23.21.47.35.81.2ZM83.36,76.62c-.14.1-.1.19-.07.23.02.03.06.1.11.08.06-.02.06-.38-.03-.31ZM83.74,77.92c-.1.11-.06.19-.05.24.02.05.12.1.17.07.08-.05.11-.14.07-.17s-.15-.19-.19-.14ZM83.36,79.62c-.49.37-.86.67-1.26,1.11.29.21,1.56-.53,1.26-1.11ZM82,80.85s.02-.06,0-.08-.06-.02-.08,0-.02.06,0,.08.06.02.08,0ZM18.21,31.19c.81-1.76,1.8-3.36,2.84-4.95-1.97,1.88-3.16,4.38-3.65,6.97.39-.64.5-1.35.81-2.02ZM45.47,58.48c.08.06.12.16.28.23.06-.15-.08-.18-.2-.31-.55-.63-1.04-1.3-1.75-1.76.22.39.58.56.73.96l.94.89ZM46.61,59.53c-.02-.41-.35-.59-.76-.76.19.3.44.5.76.76ZM48.05,60.71c-.34-.43-.55-.8-1.03-.83.22.45.65.61,1.03.83ZM48.91,83.65c.28-.15-1.96-.89-1.99-.85.59.5,1.26.61,1.99.85ZM20.33,59.09s.03-.08,0-.11-.08-.03-.11,0-.03.08,0,.11.08.03.11,0ZM20.86,60.5c.59,1.59,1.56,3,2.54,4.45,1.35,1.99,2.69,3.93,4.52,5.57-.37-.81-1.05-1.38-1.63-2.07-1.06-1.28-2.95-3.87-3.64-5.32-.31-.64-.85-1.17-1.1-1.83-.14-.37-.41-.56-.61-.9-.19-.31-.15-.86-.59-1.16-.03.48.26.82.49,1.26Z"/>
  <path class="cls-3" d="M17.18,44.89l-.1.08c-.02.06-.01.12-.03.21,0,.05.02.18.12.08.04.03.09.03.13.06-.19.36.48,3.4.56,3.63l-.09.1c-.65-1.86-.47-2.32-.92-4v-.99c.07.29.14.6.34.83Z"/>
  <path class="cls-2" d="M26.81,19.7c-.1-.07-.02-.13.08-.09l-.08.09Z"/>
  <path class="cls-2" d="M29.96,27.13s.06.06.1.09c-.1.09-.2.02-.1-.09Z"/>
  <path class="cls-2" d="M29.77,25.47c.03-.29-.06-.63.06-.92.14.3.01.62-.06.92Z"/>
  <path class="cls-2" d="M31.87,17.5c.1.25-.1.47-.14.73.56-.58.66-1.34,1-1.97.25-.45.6-.87.78-1.39.09-.1.26-.16.37-.15.11,0,.38.21.28.33-.51.61-.78,1.2-1,1.93l-.7,2.36c-.13.44-.1.91-.31,1.28-.39.68-.4,1.51-.46,2.33-.02.26-.27.48-.23.73l.23,1.49c.05.32-.14.73-.08,1.1.15.86.45,1.68.51,2.57.08,1.21,1.22,3.82,1.53,6.05.17,1.22.27,2.4.59,3.59.21.77.16,1.53.29,2.31.27,1.56.46,3.08,1,4.57l1.31,3.56c.47,1.29,1.76,3.88,2.64,4.77l2.28,2.3c.97.98,1.95,1.9,2.97,2.83l3.43,3.14c.46.42,3.44,2.54,3.97,2.81,1.02.51,2.04.96,3.1,1.35.69.25,1.27.62,1.93.92.23.11.5.01.67.17.22.2.55.34.81.17.74.39.91.44,1.69.61.94.2,1.85.57,2.77.53.06.02.13.11.18.15.1.08.22.08.32,0,.02,0,.07.04.08.06.07.17.48.26.63.38.35.28-.06.59-.23.86-.08.32.64.57.93.4.42-.25.75-.19,1.21.07-.02-.34-.16-.46,0-.61.29-.28,2.82.53,3.35.69l1.26.38c1.53.46,3.03.76,4.56,1.32.62.23,1.35.15,1.97.33l1.87.8c.87.37,1.8.63,2.73.78.37.06.66.1.92.32.15.46.06.98-.34,1.27-3.34-.71-2.98.27-5.06-.13-1.82-.35-3.55-.84-5.35-1.31-1.57-.41-3.11-.65-4.8-.49.66.3,1.21.23,2.06.3,1.18.1,3.42.62,4.53,1.01.91.32.76,1.06,1.5.77.18-.07.37.04.51.04-.29.22-.48.57-.84.78-.12.07-.27.05-.35.14-.07.08-.02.26-.09.36-.2.3-.56.18-.87.14-1.6-.2-3.2-.42-4.83-.29-.1.3.15.46.28.58.16.15.48-.04.64.04.58.29,1.06.54,1.77.52.09,0,.21.06.29,0,.08-.05.24-.15.17-.29-.04-.08-.17-.16-.34-.31.09-.18.36-.06.5-.04.26.03.25.41.37.58.19.26.62-.11.82,0,.15.24.07.62.34.9-1.22.36-2.39.62-3.66.91-.11.03-.07.24-.04.32.03.09.22.14.35.22.09.06-.07.23-.14.24-.07.01-.22.05-.29,0-.44-.32-.82-.09-1.26-.11-.7-.02-1.46-.04-2.14-.18-.58-.12-.93.01-1.38.36-.4.07-1.9.26-2.21.39-.25.1-.56-.41-.75-.36-.54.14-1.02-.17-1.51-.12-.43.05-.88.34-1.34-.09-.18.04-.19.4-.29.48-.31.18-.53-.33-.82-.41-.61-.17-1.26-.09-1.87-.2-.19-.03-.3-.47-.56-.46-.32.01-.65.2-1-.06.23-.34.53-.19.84-.33-.32-.28-.71-.17-1.03-.32-.11-.05-.18-.21-.28-.23-.27-.03-.63.4-.86.08-.28-.39-.7-.4-1.06-.56-1.16-.51-.13.12-1.94.16-.18-.32-.13-.87-.47-.96-.32-.08-.65.2-.94-.25-.06-.07-.19.2-.17.31s.19.14.31.22c.2.13.13.24.02.32-.13.08-.33.12-.46.07-.15-.06-.02-.32-.1-.54-1.15.61-1.06.06-1.47.34-.11.07.02.57-.4.65-.09.02-.22-.05-.27-.16-.04-.09.11-.29.09-.38-.16-.68-1.07-.72-1.42-1.13-.42-.51-.94-.74-1.37-1.11-.6-.52-1.22-.6-1.82-.94-.76-.43-1.37-.88-2.3-1.05-1.37-.25-2.05-2.17-3.13-2.26-.09-.24-.3-.61-.44-.8,1.3-.85.87.11,2.65.69.27.09.58.49.94.58.11.03.08.38.16.44.1.07.27.02.41.07s.02.26-.03.33c-.55-.08-.9-.54-1.49-.83.14.81.85,1.09,1.42,1.45.3.19,2.61,1.68,2.74,1.27l-2.41-1.67c.12-.22.32.08.51.08.38.02.85-.28,1.21.02.32.26.65.65.85,1,.02.21-.09.46.14.59.59.34.79-.7,1.43-.42.3.13.44.24.45.61.15.34.75.04,1,.11.38.11.57.26.95.02.24-.11.39.5.57.58.41.18.69.4.63.93.37-.03.88-.3,1.14-.07.29.27.5.24.88.37.41.14,1.04.45,1.32-.18.23-.52-1.05-.71-1.5-1.17-.85.14-1.44-.3-2.15-.65-.5-.25-1.02-.27-1.44-.7-.3-.31-1.02-.13-1.3-.36-.36-.29-.6-.61-1.11-.64-.39-.02-.66-.43-1.01-.58-1.04-.45-1.92-1.07-2.88-1.64-1.03-.61-2.63-2.05-2.95-2.16-.76-.26-1.01-.68-1.54-1.15-.74-.66-1.94-.95-2.41-1.97-.12-.27-.27-.33-.51-.5-.76-.56-.76-.94-1.37-1.56-.25-.26-.5-.62-.75-.88l-1.1-1.13c-.38-.89-.75-1.66-1.33-2.43-.17-.23-.29-.6-.48-.89-1.8-2.8-1.19-3.31-1.96-4.54.04.07-.66-2.73-.61-2.47l-.22-1.3c-.1-.6-.48-2.21-.59-3l-.23-1.66c-.06-.42-.29-.6-.18-1.1.1-.42-.45-.94-.38-1.39.1-.58-.12-1.07-.08-1.6l.09-1.08c.18-2.22.32-4.03,1.22-6.2.16-.4.29-.83.42-1.25.49-1.52.68-1.15.88-2.51.09-.61.65-1.24.89-2.87.08-.58.09-1.09.46-1.6.33-.46.16-1.02-.28-1.36.23-.14.49,0,.53-.21.09-.43-.3-.77-.72-.76-.08-.08.04-.26.08-.35.17-.43,1.36.28,1.54.33s.44-.22.56-.33l-.24,1.08c-.28.26-.6.65-.5,1.08.04.19.26.34.39.43.1.07.27.03.41-.06.1.64.25,1.28.43,1.95.19.75.2,1.49.31,2.25.2,1.37.42,2.69.51,4.08.03.48-.11.98.21,1.42.22-1.74-.07-3.39-.33-5.09-.17-1.12-.13-2.26-.45-3.31.06-.1,0-.23,0-.33.13-1.61.12-3.22.55-4.86.18-.7.45-1.34.45-2.07-.59.18-.35,1.3-.73,1.68-.06,0-.09-.1-.17-.12-.16.3-.34.64-.45.95-.23-.19-.43-.43-.65-.78-.28.1-.16.34-.3.53-.71-.24-1.47-.22-2.06.16-.09-.05-.01-.16.07-.26,2.38-2.64,3.67-4.83,4.51-8.25,0-.72.34-1.42-.05-2.13-.17,2.67-.8,5.16-2.36,7.25l-.58.78c-.04-.05-.08-.1-.13-.14.5-.65.85-1.44,1.24-2.23,1.04-2.12,1.49-4.33,1.4-6.79,1.31.32.86,2.11,2.1,2.8-.15.65-1.21,3.68-1.03,4.09ZM31.35,19c.28-.15.33-.4.38-.63-.29.16-.48.35-.38.63ZM31.28,19.17c-.24.09-.25.22-.12.31.06.04.18-.03.17-.16,0-.04.03-.19-.06-.15ZM31.18,19.73s.02-.06,0-.08-.06-.02-.08,0-.02.06,0,.08.06.02.08,0ZM70.09,72.1c.13.11.23.07.26.03.06-.07.12-.17-.02-.18-.16-.01-.37.05-.24.15ZM56.52,69.16c-.6-.51-1.97-.46-1.8-.56-.65.37,1.59.86,1.63.88.39.16.69.49,1.15.55s.83.37,1.25.5c1.01.3,1.93.69,2.94.94s1.98.63,3.01.8l3.85.64c.6.1,1.1.58,1.76.38,0-.24.09-.48.26-.65-.31-.18-.63-.22-1-.18l.08.58c-1.09-.44-2.23-.65-3.11-1.43-.2-.18-.28-.45-.66-.4.08-.24.19-.35.03-.4-.12-.04-.24-.06-.28.02-.06.11.02.21.03.33.01.27-.33.38-.52.46s-.43-.17-.64-.17c-.59,0-1.06-.12-1.61-.3-.38-.12-.83-.16-1.23-.24-.87-.17-2.81-.89-3.72-1.24-.46-.18-.99-.15-1.42-.51ZM72.75,75.03c-.15.02-.17.21-.05.18.04,0,.15.02.17-.01.03-.05-.03-.18-.13-.16ZM28.04,37.99c.37.44.83.72,1.33.3.11-.09-.12-.45-.19-.57.04-.14.23-.17.36-.26l-.26-3.57c-.02-.34-.53-.6-.81-.7-.23-.07-.71,0-.81.22-.2.43.01.98.09,1.34s-.41.77-.29,1.11c.13.38.3.68.12,1.08-.22.48.18.71.47,1.05ZM72.41,75.16s.04-.1,0-.14-.1-.04-.14,0-.04.1,0,.14.1.04.14,0ZM43.39,62.85c-.06.06-.15.15-.15.22,0,.14.12.27.24.37,1.44,1.18.89,1.19,2.58,2.38l1.27.89c.7.49,4.14,2.29,4.83,2.35.21.02.42.12.61.2.33.15.57.5,1,.47-.23-.36-.61-.39-.88-.57l-6.04-4.04c-1.99-1.33-3.67-2.93-5.31-4.58.35-.4-2.21-2.87-2.63-3.37s-.75-.96-1.18-1.36c-.71-.66-1.09-1.6-1.62-2.46-1.73-2.78-3-5.69-3.77-8.85-.45-1.83-1.24-4.52-.87-6.43.06-.33.16-.71-.17-1.15-.2,2.53-.3,2.84.26,5.83.05.24.07.43.13.67l1.01,3.7c.65,2.37,3.21,6.91,4.72,9.01,1.02,1.43,1.97,2.86,3.27,4.1.9.86,1.74,1.88,2.69,2.61ZM68.99,74.87c.76.17,1.35.23,2,.27-.24-.29-.55-.1-.84-.19-.37-.12-.81-.44-1.16-.08ZM66.9,73.88s.03-.08,0-.11-.08-.03-.11,0-.03.08,0,.11.08.03.11,0ZM57.92,71.69c2.04,1.1,4.27,1.57,6.49,2.16.33.09.64-.06.99-.01-.45-.41-1-.24-1.52-.39l-3.62-1.02c-.8-.23-1.43-.79-2.34-.73ZM28.52,39.23c.15-.01.27-.12.21-.24-.11-.15-.33-.36-.51-.38-.12,0-.23.27-.17.37.07.12.26.27.47.25ZM57.6,71.46l-1.84-.98c.1.21,1.81,1.3,1.84.98Z"/>
  <path class="cls-2" d="M30.06,26.88l-.1.25c-.18-.09-.07-.29-.09-.41l.19.17Z"/>
  <path class="cls-2" d="M30.34,21.79s-.05-.12-.01-.16c.11.03.08.1.01.16Z"/>
  <path class="cls-2" d="M29.99,23.56s-.08-.08-.15-.05c-.05.02-.08.1-.13.11-.06-.34.44-1.56.63-1.83.02.46-.09,1.33-.35,1.77Z"/>
  <path class="cls-2" d="M29.87,26.71c-.04-.22-.27-.53-.1-.75.14.19.1.54.1.75Z"/>
  <path class="cls-2" d="M29.97,23.71s0-.11.02-.15c.1.04.02.1-.02.15Z"/>
  <path class="cls-2" d="M29.9,24.13s-.05-.06-.09-.08c.05-.11.08-.24.16-.34.18.13-.11.31-.07.42Z"/>
  <path class="cls-2" d="M29.62,23.9c-.06-.05-.04-.09-.03-.14.02-.09.05-.12.11-.14.02.13-.03.17-.09.27Z"/>
  <path class="cls-2" d="M29.77,25.97c-.16-.23-.02-.28,0-.5.05.17.15.31,0,.5Z"/>
  <path class="cls-2" d="M29.81,24.05c-.04.09-.15.15-.1.26-.16.13-.03.42-.38.56-.08-.41.14-.69.29-.97l.19.15Z"/>
  <path class="cls-2" d="M29.82,24.55l-.11-.24c.06-.05.13-.11.19-.17.06.16-.01.27-.07.42Z"/>
  <path class="cls-4" d="M29.71,22.45c-.1.26-.2.76-.4.94-.12.11-.37.39-.56.33s-1.37-.76-1.54-.33c-.04.09-.15.27-.08.35.42,0,.81.33.72.76-.05.22-.3.08-.53.21.43.34.61.9.28,1.36-.37.51-.37,1.02-.46,1.6-.24,1.63-.8,2.26-.89,2.87-.2,1.37-.39.99-.88,2.51-.13.41-.26.85-.42,1.25-.9,2.17-1.04,3.98-1.22,6.2l-.09,1.08c-.04.53.18,1.02.08,1.6-.08.45.47.97.38,1.39-.11.49.12.67.18,1.1l.23,1.66c.11.79.49,2.4.59,3l.22,1.3c-.04-.25.66,2.54.61,2.47.77,1.23.15,1.73,1.96,4.54.19.29.31.66.48.89.58.77.95,1.54,1.33,2.43l1.1,1.13c.25.26.51.63.75.88.61.63.61,1.01,1.37,1.56.24.17.38.23.51.5.47,1.02,1.66,1.31,2.41,1.97.53.47.79.89,1.54,1.15.32.11,1.92,1.55,2.95,2.16.96.57,1.84,1.19,2.88,1.64.35.15.63.56,1.01.58.51.03.75.35,1.11.64.28.23,1,.05,1.3.36.42.43.95.45,1.44.7.71.36,1.3.8,2.15.65.46.46,1.74.65,1.5,1.17-.28.62-.9.32-1.32.18-.39-.13-.59-.11-.88-.37-.25-.23-.77.04-1.14.07.06-.53-.22-.76-.63-.93-.18-.08-.33-.68-.57-.58-.39.24-.57.1-.95-.02-.25-.07-.85.23-1-.11,0-.38-.15-.48-.45-.61-.64-.28-.84.76-1.43.42-.23-.13-.12-.38-.14-.59-.2-.34-.53-.74-.85-1-.36-.3-.84,0-1.21-.02-.19,0-.39-.31-.51-.08-.07-.05-.14-.11-.26-.23.06-.08.18-.28.03-.33s-.31,0-.41-.07c-.08-.06-.05-.41-.16-.44-.36-.09-.67-.49-.94-.58-1.78-.58-1.35-1.53-2.65-.69.14.19.35.57.44.8,1.07.09,1.76,2.02,3.13,2.26.93.17,1.54.62,2.3,1.05.6.34,1.22.42,1.82.94.43.37.95.6,1.37,1.11.34.41,1.26.45,1.42,1.13.02.09-.12.29-.09.38.05.11.18.18.27.16.41-.08.29-.58.4-.65.41-.28.33.28,1.47-.34.08.23-.05.48.1.54.13.05.32,0,.46-.07.12-.07.18-.19-.02-.32-.12-.08-.29-.12-.31-.22-.02-.1.12-.38.17-.31.3.46.62.17.94.25.34.09.29.64.47.96,1.81-.05.78-.68,1.94-.16.36.16.77.17,1.06.56.23.32.59-.11.86-.08.1.01.17.18.28.23.33.15.71.05,1.03.32-.31.14-.61,0-.84.33.35.25.67.07,1,.06.26,0,.37.42.56.46.61.11,1.26.03,1.87.2.29.08.51.59.82.41.1-.08.1-.44.29-.48.45.43.91.14,1.34.09.5-.05.97.26,1.51.12.19-.05.5.46.75.36.3-.12,1.81-.32,2.21-.39.46-.35.8-.49,1.38-.36.68.14,1.44.16,2.14.18.44.01.82-.22,1.26.11.07.05.22.02.29,0,.07-.01.23-.18.14-.24-.13-.08-.31-.12-.35-.22-.03-.08-.08-.29.04-.32,1.27-.29,2.44-.55,3.66-.91-.27-.28-.19-.66-.34-.9-.2-.1-.63.26-.82,0-.13-.17-.12-.54-.37-.58-.14-.02-.41-.14-.5.04.17.14.31.22.34.31.06.14-.09.24-.17.29-.09.05-.2-.01-.29,0-.71.02-1.19-.23-1.77-.52-.16-.08-.49.11-.64-.04-.13-.13-.37-.29-.28-.58,1.63-.13,3.23.09,4.83.29.31.04.68.16.87-.14.07-.11.02-.28.09-.36.08-.09.23-.07.35-.14.36-.2.54-.56.84-.78.26-.01,1.11-.01,1.1.36,0,.05-.07.08-.08.14-.03-.07-.1-.06-.15-.04-.07.04-.1.1-.07.17.02.05.1.08.13.13.02.04,0,.09,0,.13-.04.29-.49.42-.56.73-.06.28.42.68.67.79.1.04.3-.09.37-.14.13-.09-.03-.3,0-.45.06-.34.26-.64.02-.91l.33-.33c.28.12.39-.18.49-.4.4-.12.82.08,1.27.11.72.05,1.42-.01,2.07.17.05.02.12.01.17,0,.04-.01.08-.05.12-.07.8.28-.03.54.65,1.11.07.25.15.68.08.94-.14.38-.66.44-.94.66-.8.63-1.66,1.01-2.6,1.58.88.04,2.83-1.45,3.89-1.77-.91.84-2.02,1.43-3.23,1.93.35.07.68-.05.96-.19l.26.25c-.17.11-.44.28-.55.46.6.04.95-.36,1.46-.4-1.1.69-2.27,1.07-3.45,1.56-.94.39-1.78.94-2.73,1.16-.04-.07-.09-.06-.13-.02-.05.04-.08.09-.11.12-.02.03-.05.07-.08.09-1.09-.46-.35-.29-1.35-1.16.16-.02.46-.1.44-.37-1.97.44-2.72.8-4.71,1.13-.87.15-1.7.41-2.6.23-.37-.07-.71,0-.88.15-.03.03.03.11.07.15-.26.05-.37.22-.71-.11-.19-.18-.71.14-.93,0-.31-.2-.54,0-.77-.04-.97-.15-1.97,0-2.98-.06-.49-.03-.97-.08-1.45-.12l-3.45-.27c.17.28,1.47.19,1.61.46-.11.16-.27.18-.5.15-3.81-.53-6.44-.99-10.04-2.32l-3.13-1.15c-.87-.32-1.62-.72-2.35-1.18-.29-.71-2.05-1.88-2.96-1.8-.29-.26-.64-.77-.95-1.07-.12-.12-.03-.4-.18-.46-.94-.37-.34.39-1.31-.21-.6-.37-.99-.79-1.17-1.48-.09-.33-.66-.34-.81-.55-.32-.45-.65-.79-1.24-.67-.98.21-1.73-1.62-1.37-1.25l-1.13-1.16c-.3-.31-.42-.71-.81-.9-.24-.12-.69-.42-.78-.64-.24-.89-1.14-.54-1.46-.86-.52-.53.14-.95-.66-1.52-.16-.11-.19-.49-.46-.52-.2-.02-.63.07-.66-.29-.02-.21.18-.41.13-.62-.06-.27-.33-.33-.44-.58l-.36-.79c-.07-.16.16-.35.11-.52-.23-.15-.77-.12-.87-.41-.22-.61-.64-.98-1.05-1.49-.49-.61-.68-1.5-1.07-2.17-.04-.08.11-.32.11-.4,0-.16-.28-.09-.37-.17-.56-.51-.69-1.25-1.03-1.9-.37-.71-.71-1.38-.84-2.18-.11-.68-.37-1.32-.54-1.98-.12-.46-.14-.77-.47-1.18-.28-.35-.12-.96-.27-1.38-.11-.31-.39-.67-.33-.99.08-.43,0-.93-.23-1.34-.13-.24-.45-.53-.23-.84.03-.05.24,0,.26-.05.09-.4-.68-.5-.63-1.15.09.12.17,0,.12-.11l-.28-1.39c-.07-.35-.04-.65-.11-.95.29-.19.56-.39.55-.79.68.39.6-.16.92.09l.25,2.33c.14,1.3.39,3.47.9,4.25.14-.51.02-.75-.04-1.09l-.17-1-.24-.91-.11-1c-.06-.53,0-1.02-.13-1.49.08-.16.11-.33.13-.51.02-.15.07-.29.06-.44.24-.15,0-.38.02-.54.25-2.46.12-3.72.59-6.54.15-.89.44-1.71.52-2.55.02-.21-.07-.46.11-.7.01-.06-.09-.2-.23-.26.02.22-.16.29-.21.42l-.09-.08c.01-.39.42-1.29.95-1.47-.28-.23-.45-.33-.49-.56.03-.06.1-.13.14-.18.42-.02.4-.62.72-.84.13.04.29.16.37.13.08-.02.23-.17.25-.3l.18-1.49c.04-.29.41-.5.32-.78.02-.03.06-.06.07-.09.19-.19.58-.35.51-.65l-.18-.17c.34-.36.67-.76.88-1.25.12-.29.67-.74,1-.75.42-.01.73.08,1.07-.31.06-.07.29-.05.32-.16.04-.21-.39-.65-.02-.93.03-.03.07-.06.1-.09.1.06.18-.03.25-.09.06-.05.1-.13.17-.17.59-.38,1.36-.4,2.06-.16.15-.19.03-.43.3-.53.21.34.41.59.65.78ZM78.83,80.75s.02-.06,0-.08-.06-.02-.08,0-.02.06,0,.08.06.02.08,0ZM55.49,83.28c-.32-.25-.55-.07-.78-.15.3.2.56.21.78.15ZM33.08,70.37c-1.94-2.02-3.93-3.93-5.49-6.25l-1.7-2.54c-.34-.51-.74-.95-1.03-1.5l-.89-1.65-.84-1.9c-.69-1.57-1.59-3.85-1.9-5.53-.02-.09-.15-.17-.19-.15-.37.18.61,2.8.79,3.26.14.35.16.73.32,1.09.86,1.88,1.72,3.72,2.83,5.49,2.28,3.64,4.16,5.9,7.1,9.02,1.42,1.5,2.93,2.74,4.58,3.96.13.09,3.12,2.52,3.23,2.1-2.25-1.4-5.06-3.57-6.82-5.39ZM54.25,82.92c-.17.01-.15.2-.05.25.04.02.07-.01.18,0,.08.01.13-.04.08-.09-.08-.08-.12-.17-.2-.17ZM53.93,83.06c.05-.05.05-.14,0-.19s-.14-.05-.19,0-.05.14,0,.19.14.05.19,0ZM53.49,82.94c-.08-.19-.13-.27-.24-.24-.44.12-.77-.17-1.21-.13.49.2.96.37,1.45.37Z"/>
  <path class="cls-4" d="M58.28,83.79l-.08.13c-.21.02-.44.16-.61-.14.18-.28.48.04.69.01Z"/>
  <path class="cls-2" d="M75.3,83.8c-1.26.68-2.64.99-3.98,1.4-.66-.14-1.34.13-2.03.27-.4.08-2.97.27-2.53.52-1.17.02-2.37.17-3.62.05-1.04-.1-2.06.11-3.09-.16.14-.27.37-.02.57-.16-2.06-.34-3.89-.54-5.99-1.01l-1.75-.39c-.24-.23-.21-.61-.01-.86,3.13.57,6.27.99,9.49,1,.18,0,.29-.05.41-.1l.15.13s.14-.02.16-.09c.02-.06-.01-.12-.08-.17-.08-.05-.16.08-.23.13-1.31-.25-3.35-.06-4.57-.45l.08-.13c.27-.04.51-.06.84,0,.64.12,4.15.29,4.75-.02.23.04.46-.16.77.04.22.14.74-.18.93,0,.34.33.45.16.71.11.55-.1,1.15.1,1.75.02,1.8-.23,3.54-.64,5.3-1.09.25-.06.41-.2.62-.22,1,.87.26.7,1.35,1.16Z"/>
  <path class="cls-2" d="M17.52,45.75c-.05.65.72.75.63,1.15-.01.06-.22,0-.26.05-.22.31.1.6.23.84-.13.45.14.89.23,1.34-.06.32.21.68.33.99.15.42-.02,1.03.27,1.38.33.41.36.72.47,1.18.17.66.43,1.3.54,1.98.13.81.47,1.48.84,2.18.33.64.47,1.39,1.03,1.9.09.08.36.01.37.17,0,.08-.15.33-.11.4.39.68.58,1.56,1.07,2.17.41.51.83.88,1.05,1.49.11.29.64.26.87.41.05.17-.18.36-.11.52l.36.79c.11.25.38.31.44.58.05.21-.15.41-.13.62.03.36.46.27.66.29.26.03.3.4.46.52.8.57.14,1,.66,1.52.32.33,1.22-.03,1.46.86.09.22.54.52.78.64.39.19.51.59.81.9l1.13,1.16c-.36-.37.39,1.47,1.37,1.25.59-.13.91.22,1.24.67.16.22.72.23.81.55.19.69.57,1.1,1.17,1.48.97.6.37-.16,1.31.21.15.06.06.34.18.46.31.3.65.81.95,1.07.92-.08,2.67,1.09,2.96,1.8-.38-.24-.92-.47-1.44-.67,1.25,1,2.67,1.9,4.17,2.39-.05.14.06.26.15.36-2.04-.8-4.06-1.73-5.96-2.83.05-.11-.11-.3-.26-.34-.43-.1-3.34-2.16-3.82-2.74-.13-.17-.35-.25-.49-.16-.32-.34-.67-.75-1.07-1.09-1.88-1.63-3.48-3.36-5.11-5.24-3.01-3.48-5.65-7.8-7.39-12.04l-.82-2.01c-.13-.33-.37-.66-.45-.98-.2-.82-.48-1.5-.89-2.25-.69-1.27-.9-2.69-1.22-4.08-.2-.85-.41-1.63-.26-2.45l.12-.09c.45,1.68.28,2.14.92,4,.05.16-.16.42.22.47,0-.21-.07-.39-.13-.57-.08-.23-.75-3.26-.56-3.63.1.09.24.27.22.42Z"/>
  <path class="cls-2" d="M17.3,45.33s-.09-.04-.13-.06c-.01-.1-.04-.2-.09-.29l.1-.08c.06.07.16.11.22.21.05.08-.04.17-.11.22Z"/>
  <path class="cls-2" d="M26.18,22.71c-.37.28.06.72.02.93-.02.11-.25.09-.32.16-.33.38-.65.29-1.07.31-.33.01-.88.47-1,.75-.21.48-.54.89-.88,1.25-1.73,1.82-3.66,6.39-4.21,9.01.14.3.21.64.13,1.02-.46,2.17-.36,4.34-.14,6.47-.32-.25-.24.29-.92-.09.01.4-.26.6-.55.79-.06-.28-.26-.55-.29-.88l.22,2.48c-.2-.23-.26-.54-.33-.83-.02-.02-.03-.05-.06-.07.18-.15-.28-2.12-.26-2.68.13-.03.31.05.37-.06.14-.36.14-.77.12-1.19s.07-.78.1-1.18l.2-2.49c.04-.53.22-1.03.14-1.52.97-3.47,2.32-7.52,5.37-10.16.9-.78,1.88-1.37,2.78-2.05.11-.08.31-.06.43-.11l.15.17Z"/>
  <path class="cls-4" d="M52.88,84.34c-1.95-.44-3.81-1.17-5.72-1.92l-2.71-1.06c-.09-.1-.2-.22-.15-.36l4.7,1.53c1.29.42,2.58.72,3.86.95-.2.25-.23.63.01.86Z"/>
  <path class="cls-2" d="M80.88,80.83l-.26-.25c.75-.36,1.57-.67,2.21-1.3.09-.09.17-.22.26-.18.08.04.13.14.13.22,0,.18-1.88,1.54-2.34,1.51Z"/>
  <path class="cls-2" d="M34.58,8.36c-.28.81-.33,1.68-.27,2.54l-.03.06c-.27-.55-.2-1.1-.16-1.77.02-.39-.21-.82.1-1.14l.36.31Z"/>
  <path class="cls-4" d="M28.29,19.76l-1.72,2.29c-.17.23-.31.41-.54.5-.12.05-.32.03-.43.11.45-.27.75-.66,1.09-1.1l1.47-1.92s.09.09.13.14Z"/>
  <path class="cls-2" d="M82.47,77.43c-.67-.57.16-.83-.65-1.11.03-.03.1-.2.04-.23-.28-.08-.58-.05-.88-.26.43-.11,1.31-.05,1.44.56.07.32-.05.71.05,1.05Z"/>
  <path class="cls-2" d="M83.36,79.62c.3.58-.97,1.32-1.26,1.11.4-.45.77-.74,1.26-1.11Z"/>
  <path class="cls-4" d="M31.87,17.5c.5-.39.43-1.41.87-1.24-.35.63-.44,1.39-1,1.97.04-.26.24-.48.14-.73Z"/>
  <path class="cls-2" d="M48.91,83.65c-.73-.24-1.4-.35-1.99-.85.03-.04,2.28.7,1.99.85Z"/>
  <path class="cls-2" d="M33.97,11.55l-.13.65c-.28-.37-.49-.74-.21-1.27.15.22.24.41.33.62Z"/>
  <path class="cls-4" d="M32.17,10.26c-.03-.39-.02-.86.32-1.19-.02.44-.14.78-.32,1.19Z"/>
  <path class="cls-2" d="M20.95,60.4l-.09.1c-.23-.44-.52-.78-.49-1.26.44.3.4.85.59,1.16Z"/>
  <path class="cls-2" d="M33.61,13.15c-.66-.25.25.13-.58-.7.36.02.53.32.73.52.08.08-.1.21-.15.19Z"/>
  <path class="cls-2" d="M78.18,76.1c-.11.22-.21.51-.49.4-.02-.15,0-.31.08-.44.14-.05.29-.03.41.05Z"/>
  <path class="cls-2" d="M46.61,59.53c-.33-.26-.58-.46-.76-.76.41.17.75.35.76.76Z"/>
  <rect class="cls-2" x="33.03" y="13.64" width=".22" height=".56" transform="translate(9.15 -12.85) rotate(25.34)"/>
  <path class="cls-2" d="M83.36,76.62c.09-.06.09.29.03.31-.04.02-.09-.06-.11-.08-.03-.04-.07-.13.07-.23Z"/>
  <path class="cls-2" d="M31.66,9.74c.09-.04.05.11.06.16.01.1-.11.2-.17.15-.13-.09-.13-.22.12-.31Z"/>
  <path class="cls-4" d="M83.74,77.92c.05-.05.16.11.19.14s0,.12-.07.17c-.05.03-.15-.02-.17-.07-.02-.05-.06-.12.05-.24Z"/>
  <path class="cls-2" d="M45.47,58.48l.08-.09c.12.14.27.17.2.31-.16-.07-.2-.17-.28-.23Z"/>
  <circle class="cls-2" cx="20.27" cy="59.04" r=".07" transform="translate(-36.38 32.82) rotate(-46.21)"/>
  <path class="cls-2" d="M32.18,21.92c-.07.21-.02.29.06.46-.18.03-.19-.11-.19-.25,0-.09.05-.15.13-.21Z"/>
  <path class="cls-2" d="M75.38,83.72s.06-.08.11-.12c.04-.04.09-.05.13.02-.08.02-.14.13-.24.1Z"/>
  <path class="cls-2" d="M75.04,84.86c.11-.04.22-.06.33-.01-.1.07-.22.08-.33.01Z"/>
  <path class="cls-2" d="M81.53,76.39c.05-.04.12-.04.17,0-.05.02-.12.02-.17,0Z"/>
  <circle class="cls-4" cx="81.96" cy="80.81" r=".06" transform="translate(-33.09 84.05) rotate(-46.21)"/>
  <path class="cls-3" d="M37.72,55.83c1.06,1.73,2.39,3.29,3.81,4.72,1.64,1.64,3.32,3.25,5.31,4.58l6.04,4.04-.11.1c-.19-.08-.4-.18-.61-.2-.4-.37-.87-.63-1.39-.94-2.62-1.61-4.99-3.45-7.38-5.28-.95-.73-1.79-1.75-2.69-2.61-1.3-1.24-2.25-2.67-3.27-4.1-1.51-2.1-4.07-6.64-4.72-9.01l-1.01-3.7c-.07-.24-.09-.43-.13-.67-.56-2.98-.46-3.29-.26-5.83.34.44.24.82.17,1.15-.36,1.91.43,4.6.87,6.43.77,3.16,2.04,6.08,3.77,8.85.53.85.91,1.8,1.62,2.46Z"/>
  <path class="cls-4" d="M28.04,37.99c-.29-.34-.69-.58-.47-1.05.18-.4.01-.7-.12-1.08-.12-.34.36-.76.29-1.11s-.29-.9-.09-1.34c.1-.22.58-.3.81-.22.29.09.79.36.81.7l.26,3.57c-.13.1-.33.12-.36.26.08.13.3.48.19.57-.5.42-.96.14-1.33-.3Z"/>
  <path class="cls-3" d="M30.06,26.88l-.19-.17c0-.21.04-.56-.1-.75.14-.19.04-.33,0-.5.07-.3.2-.62.06-.92.06-.15.13-.26.07-.42-.04-.11.25-.29.07-.42.04-.05.12-.11.02-.15.26-.43.37-1.31.35-1.77.07-.06.09-.13-.01-.16.38-.38.14-1.5.73-1.68,0,.73-.27,1.38-.45,2.07-.43,1.64-.42,3.25-.55,4.86Z"/>
  <path class="cls-3" d="M30.33,21.63s.01.12.01.16c-.19.27-.69,1.5-.63,1.83-.06.02-.1.04-.11.14,0,.05-.04.09.03.14-.15.29-.37.56-.29.97.35-.14.22-.43.38-.56l.11.24c-.11.28-.03.63-.06.92-.02.22-.16.27,0,.5-.17.22.06.53.1.75.02.13-.09.32.09.41-.1.1,0,.17.1.09.32,1.05.28,2.19.45,3.31.26,1.71.55,3.35.33,5.09-.32-.44-.18-.94-.21-1.42-.09-1.39-.31-2.71-.51-4.08-.11-.76-.12-1.5-.31-2.25-.17-.67-.32-1.31-.43-1.95.39-1.41-.3-.71-.3-1.45l.24-1.08c.2-.18.3-.68.4-.94.11-.31.29-.65.45-.95.08.03.11.13.17.12Z"/>
  <path class="cls-3" d="M30.06,27.22s-.07-.06-.1-.09l.1-.25c0,.1.06.23,0,.33Z"/>
  <path class="cls-3" d="M29.71,24.31c-.05-.11.06-.17.1-.26.03.02.05.06.09.08-.06.06-.12.12-.19.17Z"/>
  <path class="cls-3" d="M29.97,23.71c-.08.1-.11.22-.16.34l-.19-.15c.06-.11.11-.14.09-.27.06-.02.09-.09.13-.11.06-.03.1.02.15.05-.02.04,0,.12-.02.15Z"/>
  <path class="cls-3" d="M26.7,22.36c-.06.04-.11.12-.17.17-.1-.05-.18.02-.25.09-.03.03-.06.06-.1.09l-.15-.17c.23-.09.37-.27.54-.5l1.72-2.29.58-.78c1.56-2.09,2.19-4.59,2.36-7.25.38.71.05,1.4.05,2.13-.84,3.43-2.13,5.61-4.51,8.25-.08.09-.16.2-.07.26Z"/>
  <path class="cls-3" d="M57.92,71.69c.91-.06,1.54.51,2.34.73l3.62,1.02c.52.15,1.07-.03,1.52.39-.34-.04-.66.1-.99.01-2.22-.59-4.45-1.06-6.49-2.16Z"/>
  <path class="cls-3" d="M57.6,71.46c-.02.32-1.74-.77-1.84-.98l1.84.98Z"/>
  <path class="cls-3" d="M68.99,74.87c.35-.36.79-.04,1.16.08.29.09.6-.1.84.19-.65-.04-1.24-.1-2-.27Z"/>
  <path class="cls-4" d="M28.52,39.23c-.22.02-.4-.13-.47-.25-.06-.1.05-.38.17-.37.18.01.4.23.51.38.06.12-.06.23-.21.24Z"/>
  <path class="cls-4" d="M52.76,69.27l.11-.1c.28.19.65.21.88.57-.43.03-.66-.32-1-.47Z"/>
  <path class="cls-4" d="M31.35,19c-.1-.29.1-.47.38-.63-.06.24-.11.48-.38.63Z"/>
  <path class="cls-4" d="M31.28,19.17c.09-.03.05.11.06.15.01.13-.11.2-.17.16-.13-.09-.13-.22.12-.31Z"/>
  <path class="cls-4" d="M72.75,75.03c.09-.01.15.11.13.16-.02.04-.13,0-.17.01-.12.03-.11-.16.05-.18Z"/>
  <circle class="cls-3" cx="66.85" cy="73.83" r=".07" transform="translate(-32.71 71) rotate(-46.21)"/>
  <circle class="cls-4" cx="31.14" cy="19.69" r=".06" transform="translate(-4.62 28.54) rotate(-46.21)"/>
  <circle class="cls-4" cx="72.33" cy="75.09" r=".1" transform="translate(-31.93 75.34) rotate(-46.21)"/>
  <path class="cls-3" d="M33.08,70.37c1.75,1.82,4.57,4,6.82,5.39-.11.42-3.1-2-3.23-2.1-1.66-1.21-3.16-2.46-4.58-3.96-2.95-3.12-4.82-5.38-7.1-9.02-1.1-1.76-1.97-3.61-2.83-5.49-.16-.35-.18-.73-.32-1.09-.18-.46-1.16-3.08-.79-3.26.05-.02.18.06.19.15.32,1.68,1.21,3.96,1.9,5.53l.84,1.9.89,1.65c.29.55.69.99,1.03,1.5l1.7,2.54c1.55,2.32,3.54,4.23,5.49,6.25Z"/>
  <path class="cls-3" d="M62.76,84.37c-.12.05-.23.1-.41.1-3.22,0-6.36-.43-9.49-1-1.28-.23-2.57-.53-3.86-.95l-4.7-1.53c-1.5-.49-2.92-1.39-4.17-2.39.52.2,1.07.43,1.44.67.73.46,1.47.86,2.35,1.18l3.13,1.15c3.61,1.33,6.23,1.79,10.04,2.32.23.03.39.01.5-.15.16.3.4.16.61.14,1.21.39,3.25.2,4.57.45Z"/>
  <path class="cls-3" d="M58.28,83.79c-.21.03-.51-.29-.69-.01-.15-.27-1.44-.18-1.61-.46l3.45.27c.49.04.96.09,1.45.12,1.01.06,2.01-.1,2.98.06-.6.31-4.1.14-4.75.02-.32-.06-.57-.03-.84,0Z"/>
  <path class="cls-2" d="M20.49,33.12c-.29.41-.34.95-.47,1.48-.4,1.68-.61,3.36-.68,5.08-.02.42-.21,2.5.04,2.53-.02.16.21.39-.02.54-.16-.09-.12.1-.11.16,0,.1.02.21.05.28-.02.17-.05.34-.13.51-.29-.98-.22-2.03-.28-3.09-.16-2.53.12-4.48.89-6.88.07-.21.24-.46.09-.64.17-.13.22-.34.3-.52.06-.13.23-.2.21-.42.14.06.24.2.23.26-.17.23-.09.49-.11.7Z"/>
  <path class="cls-2" d="M20.08,32.5c0,.19-.42.35-.21.6-.1.07-.17.22-.36.2.28-1.03.65-1.93,1.03-2.83.03.23.21.33.49.56-.53.18-.94,1.09-.95,1.47Z"/>
  <path class="cls-3" d="M73.95,82.64c-.21.02-.38.16-.62.22-1.76.45-3.5.86-5.3,1.09-.6.08-1.2-.12-1.75-.02-.04-.04-.11-.12-.07-.15.17-.15.51-.22.88-.15.91.18,1.74-.08,2.6-.23,1.98-.33,2.73-.69,4.71-1.13.02.27-.28.36-.44.37Z"/>
  <path class="cls-2" d="M20.69,30.29c.45-1.16,1.11-2.27,1.84-3.27.1.28-.28.49-.32.78l-.18,1.49c-.02.13-.17.28-.25.3-.08.02-.25-.09-.37-.13-.32.22-.3.82-.72.84Z"/>
  <path class="cls-2" d="M76.87,76.8c.14.14.35.17.5.03.24.27.04.57-.02.91-.03.15.13.36,0,.45-.07.05-.27.18-.37.14-.25-.11-.74-.5-.67-.79.07-.32.53-.44.56-.73Z"/>
  <path class="cls-3" d="M19.39,42.21c-.25-.04-.06-2.11-.04-2.53.06-1.73.28-3.4.68-5.08.13-.53.18-1.06.47-1.48-.07.84-.37,1.66-.52,2.55-.47,2.82-.34,4.08-.59,6.54Z"/>
  <path class="cls-3" d="M53.49,82.94c-.49,0-.96-.18-1.45-.37.45-.04.78.25,1.21.13.11-.03.16.05.24.24Z"/>
  <path class="cls-3" d="M18.35,49.13c-.09-.45-.36-.89-.23-1.34.23.41.32.9.23,1.34Z"/>
  <path class="cls-2" d="M22.6,26.92c.06-.29.33-.44.51-.65.07.3-.33.46-.51.65Z"/>
  <path class="cls-3" d="M19.87,33.1c-.21-.25.21-.41.21-.6l.09.08c-.08.18-.13.39-.3.52Z"/>
  <path class="cls-3" d="M23.11,26.27c-.18.21-.45.37-.51.65,0,.03-.05.07-.07.09-.73,1.01-1.39,2.12-1.84,3.27-.04.05-.11.12-.14.18-.39.89-.75,1.8-1.03,2.83.18.03.26-.12.36-.2.15.18-.02.42-.09.64-.77,2.39-1.05,4.35-.89,6.88.07,1.06,0,2.1.28,3.09.14.47.08.97.13,1.49l.11,1,.24.91.17,1c.06.34.18.57.04,1.09-.51-.78-.76-2.95-.9-4.25l-.25-2.33c-.23-2.14-.32-4.3.14-6.47.08-.37,0-.72-.13-1.02.55-2.62,2.48-7.19,4.21-9.01l.18.17ZM19.48,33.5c-.15.06-.12.27-.08.3.07.06.18-.09.15-.16-.01-.03.04-.2-.08-.15ZM19.4,34.06s.02-.06,0-.08-.06-.02-.08,0-.02.06,0,.08.06.02.08,0ZM19.32,34.31s.02-.06,0-.08-.06-.02-.08,0-.02.06,0,.08.06.02.08,0ZM19.1,34.79c.05.1.19-.06.15-.14-.02-.04.03-.16-.02-.17-.25-.03.21,1.01-.14.31Z"/>
  <path class="cls-3" d="M54.25,82.92c.08,0,.13.09.2.17.05.05,0,.1-.08.09-.11-.02-.14.01-.18,0-.1-.05-.12-.24.05-.25Z"/>
  <path class="cls-2" d="M76.88,76.67c-.04-.06-.11-.09-.13-.13-.03-.07,0-.13.07-.17.05-.03.12-.03.15.04,0,.1-.02.19-.09.26Z"/>
  <circle class="cls-3" cx="53.83" cy="82.97" r=".13" transform="translate(-43.32 64.42) rotate(-46.21)"/>
  <path class="cls-3" d="M55.49,83.28c-.23.06-.49.05-.78-.15.23.09.47-.09.78.15Z"/>
  <path class="cls-2" d="M26.28,22.62c.07-.07.15-.14.25-.09-.07.06-.15.15-.25.09Z"/>
  <path class="cls-3" d="M19.3,43.19c-.02-.08-.04-.19-.05-.28,0-.06-.04-.25.11-.16,0,.15-.05.29-.06.44Z"/>
  <circle class="cls-3" cx="78.79" cy="80.71" r=".06" transform="translate(-33.99 81.73) rotate(-46.21)"/>
  <path class="cls-4" d="M62.76,84.37c.07-.05.15-.17.23-.13.07.04.1.1.08.17-.02.07-.13.12-.16.09l-.15-.13Z"/>
  <path class="cls-4" d="M17.77,49.05l.09-.1c.06.18.14.36.13.57-.38-.06-.17-.32-.22-.47Z"/>
  <path class="cls-2" d="M19.48,33.5c.12-.05.07.12.08.15.03.06-.08.22-.15.16-.04-.04-.07-.24.08-.3Z"/>
  <path class="cls-2" d="M19.1,34.79c.35.7-.11-.34.14-.31.04,0,0,.13.02.17.03.08-.11.23-.15.14Z"/>
  <circle class="cls-2" cx="19.28" cy="34.27" r=".06" transform="translate(-18.8 24.47) rotate(-46.21)"/>
  <circle class="cls-2" cx="19.36" cy="34.02" r=".06" transform="translate(-18.59 24.45) rotate(-46.21)"/>
  <path class="cls-4" d="M17.17,45.26c-.09.1-.12-.02-.12-.08.01-.09,0-.15.03-.21.05.09.08.19.09.29Z"/>
</svg>